<svg xmlns="http://www.w3.org/2000/svg" version="1.1" xmlns:xlink="http://www.w3.org/1999/xlink" width="200" height="200"><svg xmlns="http://www.w3.org/2000/svg" version="1.1" xmlns:xlink="http://www.w3.org/1999/xlink" viewBox="0 0 200 200"><rect width="200" height="200" fill="url('#gradient')"></rect><defs><linearGradient id="SvgjsLinearGradient1006" gradientTransform="rotate(125 0.5 0.5)"><stop offset="0%" stop-color="#ffffff"></stop><stop offset="100%" stop-color="#ffffff"></stop></linearGradient></defs><g><g fill="#ff7300" transform="matrix(1.5287384921622293,0,0,1.5287384921622293,8.970368037875772,110.86606174477537)" stroke="#88977e" stroke-width="0"><path d="M13.12-7.47L13.12-6.82Q13.12-4.74 12.34-3.13Q11.57-1.53 10.15-0.67Q8.73 0.20 6.91 0.20Q5.10 0.20 3.69-0.64Q2.29-1.47 1.50-3.03Q0.71-4.58 0.67-6.59L0.67-6.59L0.67-7.39Q0.67-9.48 1.44-11.08Q2.21-12.68 3.64-13.54Q5.07-14.41 6.89-14.41L6.89-14.41Q8.70-14.41 10.12-13.55Q11.53-12.70 12.32-11.11Q13.11-9.52 13.12-7.47L13.12-7.47ZM9.63-6.76L9.63-7.41Q9.63-9.53 8.92-10.63Q8.21-11.73 6.89-11.73L6.89-11.73Q4.32-11.73 4.17-7.86L4.17-7.86L4.16-6.82Q4.16-4.73 4.85-3.60Q5.55-2.48 6.91-2.48L6.91-2.48Q8.21-2.48 8.92-3.58Q9.62-4.69 9.63-6.76L9.63-6.76ZM22.61-14.22L26.04-14.22L26.04-4.91Q26.04-3.33 25.36-2.17Q24.69-1.02 23.43-0.41Q22.17 0.20 20.45 0.20L20.45 0.20Q17.85 0.20 16.36-1.15Q14.86-2.50 14.83-4.84L14.83-4.84L14.83-14.22L18.28-14.22L18.28-4.78Q18.34-2.44 20.45-2.44L20.45-2.44Q21.51-2.44 22.06-3.03Q22.61-3.61 22.61-4.93L22.61-4.93L22.61-14.22ZM39.34-14.22L39.34-11.57L35.07-11.57L35.07 0L31.64 0L31.64-11.57L27.45-11.57L27.45-14.22L39.34-14.22ZM45.46 0L40.78 0L40.78-14.22L45.36-14.22Q47.25-14.22 48.75-13.36Q50.25-12.51 51.10-10.95Q51.94-9.39 51.95-7.46L51.95-7.46L51.95-6.81Q51.95-4.85 51.13-3.31Q50.30-1.76 48.80-0.88Q47.30-0.01 45.46 0L45.46 0ZM45.36-11.57L44.21-11.57L44.21-2.64L45.40-2.64Q46.88-2.64 47.67-3.69Q48.46-4.74 48.46-6.81L48.46-6.81L48.46-7.42Q48.46-9.48 47.67-10.53Q46.88-11.57 45.36-11.57L45.36-11.57ZM65.75-7.47L65.75-6.82Q65.75-4.74 64.98-3.13Q64.21-1.53 62.79-0.67Q61.37 0.20 59.55 0.20Q57.73 0.20 56.33-0.64Q54.92-1.47 54.14-3.03Q53.35-4.58 53.31-6.59L53.31-6.59L53.31-7.39Q53.31-9.48 54.08-11.08Q54.84-12.68 56.27-13.54Q57.71-14.41 59.53-14.41L59.53-14.41Q61.34-14.41 62.75-13.55Q64.17-12.70 64.96-11.11Q65.74-9.52 65.75-7.47L65.75-7.47ZM62.27-6.76L62.27-7.41Q62.27-9.53 61.56-10.63Q60.85-11.73 59.53-11.73L59.53-11.73Q56.95-11.73 56.81-7.86L56.81-7.86L56.80-6.82Q56.80-4.73 57.49-3.60Q58.18-2.48 59.55-2.48L59.55-2.48Q60.85-2.48 61.55-3.58Q62.26-4.69 62.27-6.76L62.27-6.76ZM79.56-7.47L79.56-6.82Q79.56-4.74 78.79-3.13Q78.02-1.53 76.60-0.67Q75.18 0.20 73.36 0.20Q71.54 0.20 70.14-0.64Q68.73-1.47 67.94-3.03Q67.16-4.58 67.12-6.59L67.12-6.59L67.12-7.39Q67.12-9.48 67.89-11.08Q68.65-12.68 70.08-13.54Q71.51-14.41 73.34-14.41L73.34-14.41Q75.15-14.41 76.56-13.55Q77.98-12.70 78.76-11.11Q79.55-9.52 79.56-7.47L79.56-7.47ZM76.07-6.76L76.07-7.41Q76.07-9.53 75.37-10.63Q74.66-11.73 73.34-11.73L73.34-11.73Q70.76-11.73 70.62-7.86L70.62-7.86L70.61-6.82Q70.61-4.73 71.30-3.60Q71.99-2.48 73.36-2.48L73.36-2.48Q74.66-2.48 75.36-3.58Q76.06-4.69 76.07-6.76L76.07-6.76ZM89.12 0L86.61-5.02L84.76-5.02L84.76 0L81.33 0L81.33-14.22L86.92-14.22Q89.45-14.22 90.88-13.10Q92.30-11.97 92.30-9.92L92.30-9.92Q92.30-8.44 91.70-7.46Q91.10-6.48 89.82-5.88L89.82-5.88L92.79-0.15L92.79 0L89.12 0ZM84.76-11.57L84.76-7.67L86.92-7.67Q87.90-7.67 88.39-8.18Q88.89-8.69 88.89-9.61Q88.89-10.53 88.39-11.05Q87.89-11.57 86.92-11.57L86.92-11.57L84.76-11.57ZM101.71-3.78L101.71-3.78Q101.71-4.53 101.18-4.95Q100.64-5.37 99.31-5.82Q97.97-6.27 97.12-6.69L97.12-6.69Q94.36-8.05 94.36-10.42L94.36-10.42Q94.36-11.60 95.04-12.50Q95.73-13.41 96.99-13.91Q98.25-14.41 99.82-14.41L99.82-14.41Q101.36-14.41 102.57-13.87Q103.79-13.32 104.46-12.31Q105.14-11.30 105.14-10L105.14-10L101.72-10Q101.72-10.87 101.19-11.35Q100.65-11.83 99.75-11.83L99.75-11.83Q98.83-11.83 98.30-11.42Q97.76-11.02 97.76-10.39L97.76-10.39Q97.76-9.84 98.35-9.40Q98.94-8.96 100.41-8.48Q101.88-8.01 102.83-7.46L102.83-7.46Q105.14-6.13 105.14-3.80L105.14-3.80Q105.14-1.93 103.73-0.87Q102.32 0.20 99.87 0.20L99.87 0.20Q98.14 0.20 96.74-0.42Q95.34-1.04 94.63-2.12Q93.93-3.20 93.93-4.61L93.93-4.61L97.36-4.61Q97.36-3.47 97.95-2.92Q98.54-2.38 99.87-2.38L99.87-2.38Q100.72-2.38 101.22-2.75Q101.71-3.12 101.71-3.78ZM109.47-14.22L112.10-8.05L114.72-14.22L118.42-14.22L113.84-5.11L113.84 0L110.36 0L110.36-5.11L105.79-14.22L109.47-14.22Z"></path></g></g></svg><style>@media (prefers-color-scheme: light) { :root { filter: none; } }
@media (prefers-color-scheme: dark) { :root { filter: none; } }
</style></svg>